<?xml version="1.0" encoding="utf-8"?>
<!-- Generator: Adobe Illustrator 24.1.2, SVG Export Plug-In . SVG Version: 6.00 Build 0)  -->
<svg version="1.1" id="Layer_1" xmlns="http://www.w3.org/2000/svg" xmlns:xlink="http://www.w3.org/1999/xlink" x="0px" y="0px"
	 viewBox="0 0 50 50" style="enable-background:new 0 0 50 50;" xml:space="preserve">
<style type="text/css">
	.st0{fill-rule:evenodd;clip-rule:evenodd;fill:url(#SVGID_1_);}
	.st1{fill:#58B4D9;}
	.st2{fill:#70C9E9;}
	.st3{fill:#BADEF6;}
	.st4{fill:#FFFFFF;}
	.st5{fill:#E6E5E5;}
</style>
<g>
	
		<linearGradient id="SVGID_1_" gradientUnits="userSpaceOnUse" x1="-1232.0181" y1="1671.2347" x2="-1232.5215" y2="1670.0233" gradientTransform="matrix(50 0 0 -50 61642 83548)">
		<stop  offset="0" style="stop-color:#B2C1FF"/>
		<stop  offset="1" style="stop-color:#4E4DFC"/>
	</linearGradient>
	<path class="st0" d="M25,0C11.19,0,0,11.19,0,25s11.19,25,25,25s25-11.19,25-25S38.81,0,25,0z"/>
	<g>
		<g>
			<path class="st1" d="M42.86,22.82c0-0.31-0.13-0.62-0.41-0.86c-0.27-0.24-0.63-0.36-0.98-0.36H8.21c-0.35,0-0.71,0.12-0.98,0.36
				c-0.27,0.24-0.41,0.55-0.41,0.86v12.87c0,0.31,0.13,0.62,0.41,0.86c0.27,0.24,0.63,0.36,0.98,0.36h33.26
				c0.35,0,0.71-0.12,0.98-0.36c0.27-0.24,0.41-0.55,0.41-0.86V22.82z"/>
			<path class="st2" d="M42.86,21.75c0-0.31-0.13-0.62-0.41-0.86c-0.27-0.24-0.63-0.36-0.98-0.36H8.21c-0.35,0-0.71,0.12-0.98,0.36
				c-0.27,0.24-0.41,0.55-0.41,0.86v12.87c0,0.31,0.13,0.62,0.41,0.86c0.27,0.24,0.63,0.36,0.98,0.36h33.26
				c0.35,0,0.71-0.12,0.98-0.36c0.27-0.24,0.41-0.55,0.41-0.86V21.75z"/>
			<path class="st1" d="M42.86,20.68c0-0.31-0.13-0.62-0.41-0.86c-0.27-0.24-0.63-0.36-0.98-0.36H8.21c-0.35,0-0.71,0.12-0.98,0.36
				c-0.27,0.24-0.41,0.55-0.41,0.86v12.87c0,0.31,0.13,0.62,0.41,0.86c0.27,0.24,0.63,0.36,0.98,0.36h33.26
				c0.35,0,0.71-0.12,0.98-0.36c0.27-0.24,0.41-0.55,0.41-0.86V20.68z"/>
			<path class="st2" d="M42.86,19.6c0-0.31-0.13-0.62-0.41-0.86c-0.27-0.24-0.63-0.36-0.98-0.36H8.21c-0.35,0-0.71,0.12-0.98,0.36
				c-0.27,0.24-0.41,0.55-0.41,0.86v12.87c0,0.31,0.13,0.63,0.41,0.86c0.27,0.24,0.63,0.36,0.98,0.36h33.26
				c0.35,0,0.71-0.12,0.98-0.36c0.27-0.24,0.41-0.55,0.41-0.86V19.6z"/>
			<path class="st1" d="M42.86,18.53c0-0.31-0.13-0.62-0.41-0.86c-0.27-0.24-0.63-0.36-0.98-0.36H8.21c-0.35,0-0.71,0.12-0.98,0.36
				c-0.27,0.24-0.41,0.55-0.41,0.86v12.87c0,0.31,0.13,0.62,0.41,0.86c0.27,0.24,0.63,0.36,0.98,0.36h33.26
				c0.35,0,0.71-0.12,0.98-0.36c0.27-0.24,0.41-0.55,0.41-0.86V18.53z"/>
			<path class="st2" d="M42.86,17.46c0-0.31-0.13-0.62-0.41-0.86c-0.27-0.24-0.63-0.36-0.98-0.36H8.21c-0.35,0-0.71,0.12-0.98,0.36
				c-0.27,0.24-0.41,0.55-0.41,0.86v12.87c0,0.31,0.13,0.62,0.41,0.86c0.27,0.24,0.63,0.36,0.98,0.36h33.26
				c0.35,0,0.71-0.12,0.98-0.36c0.27-0.24,0.41-0.55,0.41-0.86V17.46z"/>
			<path class="st1" d="M42.86,16.39c0-0.31-0.13-0.62-0.41-0.86c-0.27-0.24-0.63-0.36-0.98-0.36H8.21c-0.35,0-0.71,0.12-0.98,0.36
				c-0.27,0.24-0.41,0.55-0.41,0.86v12.87c0,0.31,0.13,0.62,0.41,0.86c0.27,0.24,0.63,0.36,0.98,0.36h33.26
				c0.35,0,0.71-0.12,0.98-0.36c0.27-0.24,0.41-0.55,0.41-0.86V16.39z"/>
			<path class="st2" d="M42.86,15.32c0-0.31-0.13-0.62-0.41-0.86c-0.27-0.24-0.63-0.36-0.98-0.36H8.21c-0.35,0-0.71,0.12-0.98,0.36
				c-0.27,0.24-0.41,0.55-0.41,0.86V28.2c0,0.31,0.13,0.62,0.41,0.86c0.27,0.24,0.63,0.36,0.98,0.36h33.26
				c0.35,0,0.71-0.12,0.98-0.36c0.27-0.24,0.41-0.55,0.41-0.86V15.32z"/>
			<g>
				<path class="st1" d="M42.86,14.25c0-0.31-0.13-0.62-0.41-0.86c-0.27-0.24-0.63-0.36-0.98-0.36H8.21c-0.35,0-0.71,0.12-0.98,0.36
					c-0.27,0.24-0.41,0.55-0.41,0.86v12.87c0,0.31,0.13,0.62,0.41,0.86c0.27,0.24,0.63,0.36,0.98,0.36h33.26
					c0.35,0,0.71-0.12,0.98-0.36c0.27-0.24,0.41-0.55,0.41-0.86V14.25z"/>
				<path class="st3" d="M40.93,24.91c-1.1,0-1.99,0.78-1.99,1.75H10.73c0-0.96-0.89-1.75-1.99-1.75v-8.43
					c1.1,0,1.99-0.78,1.99-1.75h28.21c0,0.96,0.89,1.75,1.99,1.75V24.91z"/>
				<g>
					<g>
						<path class="st1" d="M24.84,25.38c-2.94,0-5.32-2.1-5.32-4.69c0-2.58,2.39-4.69,5.32-4.69c2.94,0,5.33,2.1,5.33,4.69
							C30.16,23.27,27.78,25.38,24.84,25.38z"/>
						<g>
							<rect x="31.76" y="20.15" class="st1" width="4.66" height="1.07"/>
							<rect x="13.25" y="20.15" class="st1" width="4.66" height="1.07"/>
						</g>
					</g>
				</g>
			</g>
		</g>
		<g>
			<rect x="21.66" y="13.03" class="st4" width="6.36" height="15.31"/>
			<rect x="21.66" y="28.35" class="st5" width="6.36" height="8.56"/>
		</g>
	</g>
</g>
</svg>
